# xmcd CD database file
#
# Track frame offsets:
#	150
#	8965
#	23866
#	36982
#	44856
#	53395
#	66613
#	72458
#	82521
#	92846
#	100106
#	117209
#	124347
#	138352
#	154411
#
# Disc length: 2244 seconds
#
# Revision: 0
# Processed by: cddbd v1.5.1PL2 Copyright (c) Steve Scherf et al.
# Submitted via: CDex 1.51
#
DISCID=d008c20f
DTITLE=Alan Jackson - Precious Memories
DYEAR=2006
DGENRE=Country
TTITLE0=Blessed Assurance
TTITLE1=Softly And Tenderly
TTITLE2=I Love To Tell The Story
TTITLE3=When We All Get To Heaven
TTITLE4=Tis So Sweet To Trust In Jesus
TTITLE5=In The Garden
TTITLE6=Are You Washed In The Blood
TTITLE7=Ill Fly Away
TTITLE8=What A Friend We Have In Jesus
TTITLE9=Standing On The Promises
TTITLE10=Turn Your Eyes Upon Jesus
TTITLE11=Leaning On The Everlasting Arms
TTITLE12=The Old Rugged Cross
TTITLE13=How Great Thou Art
TTITLE14=I Want To Stroll Over Heaven With You
EXTD=YEAR: 2006
EXTT0=
EXTT1=
EXTT2=
EXTT3=
EXTT4=
EXTT5=
EXTT6=
EXTT7=
EXTT8=
EXTT9=
EXTT10=
EXTT11=
EXTT12=
EXTT13=
EXTT14=
PLAYORDER=
